<svg width="66" height="64" viewBox="0 0 66 64" fill="none" xmlns="http://www.w3.org/2000/svg">
<g clip-path="url(#clip0_1_1043)">
<path d="M37.0641 21.4997C36.9061 21.4726 36.7457 21.4511 36.5864 21.4489C34.3804 21.4139 32.1744 21.3834 29.9672 21.3552C29.9126 21.3552 29.8591 21.3913 29.7824 21.4184V30.1966C29.9242 30.2101 30.0393 30.2293 30.1544 30.2293C31.9408 30.2271 33.7284 30.2553 35.5125 30.2045C36.3482 30.1808 37.1862 30.0363 38.0114 29.8884C39.2179 29.6739 39.9362 28.9085 40.1175 27.7684C40.2662 26.8325 40.3418 25.8662 40.279 24.9236C40.1244 22.6082 39.4096 21.8959 37.0641 21.5008V21.4997Z" fill="#357EFE"/>
<path d="M32.9462 0C14.7506 0 0 14.3267 0 31.9994C0 49.6722 14.7506 63.9989 32.9462 63.9989C51.1418 63.9989 65.8923 49.6722 65.8923 31.9994C65.8923 14.3267 51.1429 0 32.9462 0ZM48.7602 29.8636C48.1803 33.301 45.9533 35.2066 42.5571 35.9584C40.0919 36.5037 37.5802 36.5048 35.0732 36.5274C33.3297 36.5432 31.5875 36.5308 29.7766 36.5308V39.3745C30.0044 39.3745 30.216 39.3745 30.4287 39.3745C32.8369 39.3745 35.2452 39.3722 37.6546 39.3756C38.5461 39.3767 38.6995 39.5336 38.7018 40.3984C38.703 41.2563 38.703 42.1143 38.7018 42.9711C38.7006 43.8392 38.5484 43.9984 37.6604 44.0006C35.2719 44.0063 32.8834 44.0029 30.4949 44.0029C30.2776 44.0029 30.0602 44.0029 29.7545 44.0029C29.7545 44.2546 29.7545 44.4601 29.7545 44.6667C29.7545 46.1478 29.7603 47.63 29.751 49.1111C29.7464 49.8212 29.6174 49.9623 28.9258 49.9645C26.578 49.9736 24.229 49.9612 21.8812 49.9725C21.2942 49.9747 21.0606 49.7399 21.0699 49.1642C21.0932 47.6831 21.0769 46.2008 21.0769 44.7197C21.0769 44.5086 21.0769 44.2987 21.0769 43.9927C20.1099 43.9927 19.1963 43.9927 18.2828 43.9927C17.2677 43.9927 16.7602 43.4975 16.7602 42.5071C16.7602 41.7474 16.7555 40.9865 16.7625 40.2268C16.7683 39.5765 16.9485 39.3869 17.6156 39.379C18.7372 39.3654 19.86 39.3756 21.0269 39.3756V34.7867C19.9646 34.7867 18.9081 34.7867 17.8527 34.7867C16.8613 34.7867 16.7613 34.6873 16.7602 33.7086C16.7602 32.8506 16.7567 31.9927 16.7602 31.1358C16.7637 30.3953 16.9206 30.2384 17.6714 30.235C18.7744 30.2293 19.8763 30.2339 21.0722 30.2339V29.5238C21.0722 24.8841 21.0722 20.2443 21.0722 15.6057C21.0722 14.7026 21.178 14.5852 22.0881 14.5502C26.6989 14.3707 31.3085 14.1506 35.9205 14.0388C38.309 13.9813 40.68 14.2398 43.0023 14.8753C46.0172 15.7006 47.8443 17.5926 48.5499 20.5187C49.2984 23.6163 49.2867 26.7433 48.7602 29.867V29.8636Z" fill="#357EFE"/>
</g>
<defs>
<clipPath id="clip0_1_1043">
<rect width="65.8935" height="64" fill="white"/>
</clipPath>
</defs>
</svg>
